<?xml version="1.0" encoding="utf-8"?>
<!-- Generator: Adobe Illustrator 16.0.0, SVG Export Plug-In . SVG Version: 6.00 Build 0)  -->
<!DOCTYPE svg PUBLIC "-//W3C//DTD SVG 1.1//EN" "http://www.w3.org/Graphics/SVG/1.1/DTD/svg11.dtd">
<svg version="1.1" id="Layer_1" xmlns="http://www.w3.org/2000/svg" xmlns:xlink="http://www.w3.org/1999/xlink" x="0px" y="0px"
	 width="531.485px" height="527px" viewBox="0 0 531.485 527" enable-background="new 0 0 531.485 527" xml:space="preserve">
<g>
	<g>
		<path fill="#FEFEFE" d="M250.269,0.448c93.174,0,186.349,0.007,279.524-0.048c1.793-0.001,2.193,0.323,2.192,2.166
			c-0.061,75.242-0.052,150.483-0.052,225.726c-1.259-0.243-0.992-1.308-1.083-2.119c-0.379-3.406-0.674-6.821-1.109-10.219
			c-2.065-15.223-5.832-30.002-11.59-44.258c-4.491-11.774-10.558-22.722-17.468-33.227c-5.275-8.05-11.174-15.626-17.474-22.895
			c-5.779-6.743-12.365-12.701-18.54-19.06c-1.047-1.077-2.291-1.901-3.48-2.797c-4.964-4.681-10.193-9.047-15.629-13.17
			c-7.868-6.307-16.263-11.867-24.67-17.411c-9.113-5.781-18.376-11.308-27.858-16.462c-10.231-5.473-20.595-10.677-31.2-15.39
			c-0.612-0.272-1.215-0.566-1.883-0.684c-6.022-2.993-12.278-5.444-18.509-7.954c-1.73-0.697-3.476-1.36-5.265-1.896
			c-6.056-2.264-12.084-4.606-18.293-6.436c-6.864-1.984-13.633-4.314-20.677-5.636c-6.579-1.429-13.084-3.199-19.737-4.287
			c-0.438-0.072-0.871-0.157-1.318-0.146c-7.928-1.179-15.856-2.34-23.874-2.732c-0.648-0.018-1.296-0.033-1.87-0.396
			C250.171,0.934,250.125,0.71,250.269,0.448z"/>
		<path fill-rule="evenodd" clip-rule="evenodd" fill="#FEFEFE" d="M280.319,527.449c-92.618,0-185.235-0.006-277.853,0.042
			c-1.682,0-2.062-0.379-2.061-2.061c0.049-75.724,0.042-151.447,0.042-227.171c0.263-0.143,0.485-0.095,0.668,0.143
			c0.439,0.701,0.348,1.499,0.425,2.268c0.538,8.587,1.776,17.078,3.497,25.5c1.554,7.563,3.667,14.973,6.189,22.266
			c0.436,1.261,0.927,2.503,1.342,3.771c2.061,5.671,4.544,11.159,7.179,16.581c1.991,4.322,4.36,8.443,6.74,12.559
			c2.553,4.51,5.48,8.78,8.394,13.059c3.554,4.903,7.224,9.716,11.127,14.349c2.892,3.814,6.371,7.118,9.438,10.78
			c5.472,5.608,11.029,11.126,17.046,16.159c5.936,5.46,12.271,10.429,18.726,15.251c5.381,4.098,10.895,8.004,16.6,11.64
			c7.032,4.73,14.33,9.029,21.602,13.371c7.486,4.25,15.012,8.426,22.789,12.129c10.517,5.463,21.367,10.195,32.297,14.752
			c7.067,2.945,14.268,5.539,21.487,8.083c8.426,2.877,16.961,5.385,25.581,7.613c10.226,2.607,20.556,4.678,31.013,6.104
			c5.116,0.784,10.277,1.143,15.415,1.712C278.874,526.442,280.018,526.103,280.319,527.449z"/>
		<path fill-rule="evenodd" clip-rule="evenodd" fill="#FEFEFE" d="M0.449,272.694c0-90.035,0.006-180.07-0.049-270.106
			C0.399,0.793,0.727,0.396,2.567,0.397c74.045,0.06,148.091,0.051,222.137,0.051c-0.089,1.128-1.024,0.875-1.701,1.051
			c-0.974,0.002-1.953-0.047-2.896,0.289c-1.469,0.21-2.957,0.275-4.413,0.592c-6.398,0.676-12.731,1.764-19.045,2.968
			c-5.108,1.295-10.271,2.381-15.292,4.011c-4.729,1.338-9.254,3.255-13.867,4.922c-5.797,2.44-11.483,5.116-17.062,8.019
			c-8.302,4.26-16.118,9.296-23.635,14.808c-9.075,6.651-17.617,13.925-25.568,21.888c-3.068,2.818-5.807,5.95-8.591,9.039
			c-5.633,6.001-10.812,12.382-15.811,18.915c-10.25,13.271-19.244,27.371-27.541,41.919c-10.19,17.868-19.067,36.378-26.664,55.492
			c-7.215,18.155-13.017,36.753-16.889,55.917c-1.878,9.295-3.32,18.668-3.984,28.145c-0.177,0.871-0.154,1.761-0.268,2.634
			C1.392,271.729,1.527,272.616,0.449,272.694z"/>
		<path fill-rule="evenodd" clip-rule="evenodd" fill="#FEFEFE" d="M531.934,255.651c0,89.926-0.005,179.853,0.042,269.779
			c0.001,1.682-0.379,2.062-2.06,2.061c-74.229-0.049-148.457-0.042-222.687-0.042c0.081-1.102,0.987-0.983,1.666-1.036
			c11.122-0.87,22.089-2.684,32.906-5.398c8.972-1.978,17.572-5.092,26.03-8.618c3.983-1.661,7.874-3.534,11.759-5.412
			c12.043-6.181,23.262-13.619,33.801-22.104c2.728-2.196,5.359-4.504,8.031-6.767c4.07-3.526,7.847-7.358,11.648-11.165
			c10.798-10.817,20.414-22.618,29.267-35.06c13.688-19.237,25.287-39.696,35.505-60.95c7.195-14.966,13.528-30.299,18.826-46.038
			c6.263-18.604,10.822-37.621,13.238-57.123c0.422-3.405,0.598-6.839,1.023-10.246
			C531.021,256.813,530.698,255.792,531.934,255.651z"/>
		<path fill-rule="evenodd" clip-rule="evenodd" fill="#F68F1E" d="M531.934,255.651c-0.992,1.519-0.631,3.292-0.771,4.921
			c-1.734,20.241-5.984,39.973-12.297,59.234c-14.402,43.948-35.078,84.697-62.932,121.696
			c-9.949,13.215-21.106,25.357-33.444,36.397c-0.273,0.244-0.594,0.437-0.893,0.653c-1.368-0.808-0.562-1.854-0.214-2.743
			c2.151-5.497,4.47-10.928,6.727-16.381c5.859-14.153,11.715-28.308,17.591-42.454c12.728-30.637,25.411-61.292,38.113-91.939
			c13.761-33.202,27.497-66.415,41.273-99.609c1.003-2.415,1.975-4.844,3.021-7.241c0.438-1.007,0.793-2.138,2.054-2.492
			c0.868,3.549,0.868,7.203,1.315,10.803c0.075,0.604-0.346,1.368,0.457,1.795c0,0.299,0,0.598,0,0.897
			c-0.486,0.861-0.113,1.796-0.231,2.689c0.118,0.895-0.255,1.831,0.231,2.693c0,4.634,0,9.269,0,13.904
			c-0.486,0.875-0.112,1.824-0.231,2.73c0.116,1.031-0.26,2.098,0.231,3.1C531.934,254.754,531.934,255.203,531.934,255.651z"/>
		<path fill-rule="evenodd" clip-rule="evenodd" fill="#F48120" d="M342.213,521.55c-10.793,2.93-21.806,4.529-32.933,5.45
			c-0.688,0.058-1.508-0.329-2.051,0.449c-0.149,0-0.299,0-0.448,0c-0.718-1.181,0.074-2.17,0.479-3.152
			c6.023-14.632,12.067-29.255,18.14-43.867c8.449-20.332,16.835-40.69,25.26-61.033c0.971-2.344,2.019-4.453,4.172-5.891
			c0.732-0.49,1.04-1.244,0.951-2.138c0.173-0.853,0.624-1.439,1.529-1.585c2.367,0.572,3.121-0.028,3.791-3.031
			c0.836-1.977,2.749-2.916,4.239-4.207c7.835-6.787,15.49-13.761,23.065-20.838c5.021-4.69,9.776-9.635,14.735-14.379
			c0.725-0.692,1.306-1.709,2.577-1.497c0.96,0.762,0.458,1.619,0.122,2.428c-5.006,12.072-9.976,24.158-14.993,36.226
			c-5.965,14.342-11.904,28.693-17.853,43.043c-9.781,23.591-19.509,47.204-29.38,70.758
			C343.158,519.376,343.076,520.634,342.213,521.55z"/>
		<path fill-rule="evenodd" clip-rule="evenodd" fill="#F47D20" d="M356.091,411.199c0.484,0.854,0.749,1.835-0.28,2.338
			c-3.397,1.659-4.186,5.039-5.452,8.072c-5.762,13.796-11.482,27.608-17.187,41.429c-5.108,12.376-10.159,24.774-15.265,37.15
			c-3.375,8.184-6.808,16.344-10.197,24.521c-0.368,0.89-0.622,1.825-0.929,2.74c-0.149,0-0.299,0-0.448,0
			c-0.738-0.472-1.558-0.124-2.332-0.231c-1.015,0.11-2.063-0.237-3.05,0.231c-4.635,0-9.27,0-13.904,0
			c-0.863-0.486-1.801-0.114-2.696-0.231c-0.459-0.021-0.925,0.061-1.37-0.114c-0.816-1.231-0.051-2.312,0.393-3.371
			c6.319-15.089,12.524-30.226,18.807-45.33c4.304-10.347,8.54-20.72,12.869-31.056c1.022-2.442,1.668-5.046,3.114-7.306
			c0.136-0.916,0.854-1.349,1.521-1.821c11.108-7.883,21.915-16.162,32.553-24.668C353.397,412.624,354.231,411.029,356.091,411.199
			z"/>
		<path fill-rule="evenodd" clip-rule="evenodd" fill="#EC2324" d="M0.449,272.694c0.964-1.367,0.151-3.079,0.868-4.495
			c2.258-4.305,3.86-8.893,5.714-13.369c12.661-30.578,25.336-61.15,37.996-91.729c9.888-23.883,19.764-47.771,29.705-71.63
			c0.69-1.656,1.253-3.358,1.922-5.022c2.38-3.814,5.417-7.124,8.285-10.551c2.358-2.819,4.577-5.783,7.377-8.212
			c1.053,0.869,1.125,0.971,0.45,2.658c-1.438,3.597-2.921,7.177-4.414,10.752C82.784,94.434,77.3,107.807,71.721,121.14
			c-0.434,1.036-0.645,2.137-1.013,3.192c-3.594,4.958-7.29,9.837-10.476,15.088c-7.055,11.629-11.533,24.258-14.726,37.392
			c-2.265,9.316-3.177,18.839-4.083,28.357c-0.05,0.521-0.102,1.042-0.327,1.526c-2.41,3.985-3.802,8.426-5.574,12.689
			c-10.86,26.132-21.705,52.27-32.498,78.43c-0.427,1.035-0.611,2.37-2.054,2.675c-0.061-0.716-0.122-1.432-0.183-2.147
			c-0.21-0.722-0.067-1.46-0.109-2.188c-0.118-0.939,0.257-1.919-0.231-2.828c0-4.635,0-9.27,0-13.904
			c0.486-0.86,0.113-1.796,0.231-2.688c-0.117-0.895,0.255-1.83-0.231-2.693C0.449,273.592,0.449,273.144,0.449,272.694z"/>
		<path fill-rule="evenodd" clip-rule="evenodd" fill="#EE4823" d="M250.349,0.789c0.571,0.054,1.143,0.107,1.713,0.161
			c0.85,1.232,0.036,2.309-0.398,3.357c-5.792,13.983-11.594,27.962-17.381,41.948c-4.589,11.091-9.272,22.145-13.728,33.291
			c-0.249,0.623-0.449,1.28-1.147,1.58c-2.833,0.813-5.651-0.001-8.437-0.237c-4.52-0.382-9.095-0.114-13.563-1.073
			c-1.367-0.848-0.429-1.883-0.103-2.733c2.359-6.135,4.96-12.173,7.481-18.242c6.702-16.14,13.373-32.293,20.071-48.434
			c1.314-3.167,2.649-6.323,3.779-9.562c0.733-0.422,1.631,0.135,2.346-0.396c4.635,0,9.27,0,13.904,0
			c1.05,0.491,2.162,0.115,3.239,0.231C248.867,0.722,249.616,0.579,250.349,0.789z"/>
		<path fill-rule="evenodd" clip-rule="evenodd" fill="#F47A20" d="M318.372,439.965c0.348,0.216,0.634,0.569,0.415,0.92
			c-3.415,5.475-5.17,11.683-7.696,17.543c-5.181,12.02-10.054,24.172-15.069,36.263c-4.104,9.893-8.241,19.772-12.336,29.671
			c-0.335,0.812-0.456,1.712-0.677,2.571c-0.306,0.544-1.006,0.057-1.344,0.517c-0.449,0-0.897,0-1.346,0
			c-2.074-0.896-4.314-0.597-6.473-0.862c-3.827-0.471-7.688-0.669-11.479-1.435c-1.586-1.018-0.636-2.282-0.211-3.361
			c2.401-6.106,4.978-12.143,7.495-18.201c5.636-13.565,11.223-27.149,16.853-40.716c0.405-0.976,0.694-1.967,0.679-3.031
			c0.203-1,1.026-1.437,1.797-1.864c9.198-5.105,17.997-10.835,26.602-16.876C316.402,440.526,317.178,439.69,318.372,439.965z"/>
		<path fill-rule="evenodd" clip-rule="evenodd" fill="#EE4323" d="M228.739,0.939c0.155,2.589-1.285,4.703-2.195,6.938
			c-4.063,9.978-8.264,19.9-12.393,29.852c-5.011,12.078-9.999,24.166-15.002,36.247c-0.739,1.784-1.501,3.557-2.253,5.335
			c-0.728,0.864-1.759,0.809-2.698,0.737c-3.417-0.262-6.847-0.319-10.254-0.669c-1.466-0.83-0.663-1.972-0.289-2.927
			c1.688-4.309,3.545-8.55,5.308-12.829c7.08-17.186,14.24-34.339,21.323-51.523c1.108-2.689,2.144-5.413,3.435-8.027
			c0.476-0.964,1.054-1.792,2.018-2.306c1.439-0.499,2.931-0.472,4.423-0.44c0.868-0.455,1.845,0.019,2.727-0.319
			c0.553-0.355,1.419,0.31,1.815-0.558c0.299,0,0.598,0,0.897,0c0.817,0.486,1.714,0.111,2.564,0.235
			C228.397,0.678,228.587,0.767,228.739,0.939z"/>
		<path fill-rule="evenodd" clip-rule="evenodd" fill="#F79F5A" d="M300.951,527.449c0.96-0.852,2.105-0.3,3.163-0.421
			c0.132,0.102,0.172,0.197,0.121,0.288c-0.05,0.088-0.098,0.133-0.146,0.133C303.044,527.449,301.997,527.449,300.951,527.449z"/>
		<path fill-rule="evenodd" clip-rule="evenodd" fill="#F27356" d="M248.06,0.858c-1.062-0.098-2.208,0.442-3.173-0.41
			c1.046,0,2.093,0,3.14,0c0.139,0.081,0.19,0.168,0.154,0.263C248.143,0.809,248.103,0.858,248.06,0.858z"/>
		<path fill-rule="evenodd" clip-rule="evenodd" fill="#FAC78E" d="M531.934,254.306c-0.916-0.93-0.283-2.052-0.38-3.083
			c0.092-0.254,0.221-0.262,0.38-0.056C531.934,252.212,531.934,253.259,531.934,254.306z"/>
		<path fill-rule="evenodd" clip-rule="evenodd" fill="#F2765C" d="M228.739,0.939c-0.162-0.031-0.323-0.061-0.485-0.091
			c-0.12-0.101-0.154-0.194-0.103-0.279c0.049-0.081,0.095-0.122,0.141-0.122c0.897,0,1.794,0,2.691,0
			C230.37,1.229,229.479,0.741,228.739,0.939z"/>
		<path fill-rule="evenodd" clip-rule="evenodd" fill="#F79E58" d="M284.314,527.059c0.921,0.062,1.92-0.431,2.732,0.391
			c-0.896,0-1.794,0-2.691,0c-0.134-0.074-0.185-0.156-0.152-0.247C284.237,527.106,284.274,527.059,284.314,527.059z"/>
		<path fill-rule="evenodd" clip-rule="evenodd" fill="#F9BA8C" d="M284.314,527.059c0.021,0.13,0.034,0.26,0.041,0.391
			c-0.896,0-1.794,0-2.69,0c0.278-0.613,0.882-0.38,1.344-0.516C283.444,526.975,283.879,527.017,284.314,527.059z"/>
		<path fill-rule="evenodd" clip-rule="evenodd" fill="#F6A696" d="M228.292,0.448c-0.001,0.135-0.013,0.269-0.038,0.4
			c-0.885-0.128-1.886,0.512-2.653-0.4C226.498,0.448,227.395,0.448,228.292,0.448z"/>
		<path fill-rule="evenodd" clip-rule="evenodd" fill="#FAC990" d="M531.53,231.842c0.101-0.89-0.456-1.879,0.403-2.653
			c0,0.897,0,1.794,0,2.691C531.778,232.088,531.644,232.075,531.53,231.842z"/>
		<path fill-rule="evenodd" clip-rule="evenodd" fill="#F8AC56" d="M531.53,231.842c0.134,0.016,0.269,0.029,0.403,0.038
			c0,0.897,0,1.794,0,2.691C531.112,233.763,531.61,232.76,531.53,231.842z"/>
		<path fill-rule="evenodd" clip-rule="evenodd" fill="#F15A5B" d="M0.449,293.326c0.825,0.815,0.331,1.815,0.383,2.739
			c-0.149,0.149-0.276,0.134-0.383-0.048C0.449,295.12,0.449,294.223,0.449,293.326z"/>
		<path fill-rule="evenodd" clip-rule="evenodd" fill="#F15A5B" d="M0.834,276.687c-0.059,0.921,0.44,1.922-0.385,2.735
			c0-0.896,0-1.794,0-2.69C0.557,276.543,0.687,276.537,0.834,276.687z"/>
		<path fill-rule="evenodd" clip-rule="evenodd" fill="#F58C8C" d="M0.834,276.687c-0.128,0.013-0.257,0.027-0.385,0.045
			c0-0.897,0-1.794,0-2.691C1.285,274.819,0.784,275.793,0.834,276.687z"/>
		<path fill-rule="evenodd" clip-rule="evenodd" fill="#F8AB54" d="M531.934,251.166c-0.126,0.023-0.253,0.042-0.38,0.056
			c0.029-0.929-0.428-1.925,0.38-2.747C531.934,249.372,531.934,250.269,531.934,251.166z"/>
		<path fill-rule="evenodd" clip-rule="evenodd" fill="#F6A390" d="M248.06,0.858c-0.024-0.136-0.035-0.272-0.034-0.41
			c0.748,0,1.495,0,2.243,0c0.06,0.106,0.086,0.22,0.08,0.341C249.586,0.812,248.823,0.835,248.06,0.858z"/>
		<path fill-rule="evenodd" clip-rule="evenodd" fill="#F5908E" d="M0.449,296.018c0.127,0.02,0.255,0.035,0.383,0.048
			c-0.015,0.76-0.029,1.518-0.043,2.277l-0.193,0.053l-0.147-0.136C0.449,297.512,0.449,296.765,0.449,296.018z"/>
		<path fill-rule="evenodd" clip-rule="evenodd" fill="#F9C294" d="M304.09,527.449c-0.01-0.142-0.002-0.282,0.024-0.421
			c0.741,0.134,1.611-0.418,2.219,0.421C305.585,527.449,304.838,527.449,304.09,527.449z"/>
		<path fill-rule="evenodd" clip-rule="evenodd" fill="#F58C1F" d="M530.161,215.694c-2.214,3.319-3.343,7.134-4.865,10.762
			c-5.473,13.039-10.869,26.111-16.283,39.174c-3.933,9.489-7.848,18.985-11.771,28.477c-4.977,12.036-9.959,24.07-14.932,36.108
			c-5.654,13.689-11.29,27.387-16.955,41.071c-7.631,18.431-15.285,36.851-22.922,55.278c-6.098,14.714-12.184,29.433-18.278,44.148
			c-0.826,1.995-1.643,3.994-2.531,5.961c-0.302,0.666-0.456,1.245-0.026,1.879c-9.946,9.108-20.844,16.922-32.454,23.753
			c-3.014,1.772-6.003,3.604-9.257,4.934c-0.431-1.615,0.552-2.892,1.104-4.229c8.38-20.225,16.763-40.448,25.14-60.675
			c13.751-33.204,27.508-66.406,41.267-99.607c6.178-14.909,12.416-29.794,18.491-44.746c0.37-0.911,0.886-1.729,1.536-2.459
			c0.588-0.66,0.898-1.366,0.532-2.244c-0.124-1.006,0.529-1.681,1.062-2.387c7.59-10.096,15.099-20.252,22.279-30.645
			c6.856-9.924,13.064-20.227,17.081-31.674c4.033-11.497,5.185-23.138,1.167-34.928c-0.239-0.701-0.532-1.415-0.194-2.175
			c1.334-1.025,2.165-2.382,2.753-3.949c1.457-3.894,3.122-7.704,4.731-11.535c0.65-1.548,0.154-3.488,1.665-4.711
			c3.766,8.438,6.35,17.263,8.47,26.226C528.389,203.498,529.71,209.522,530.161,215.694z"/>
		<path fill-rule="evenodd" clip-rule="evenodd" fill="#F16822" d="M360.153,30.115c4.165,1.385,8.021,3.471,11.964,5.349
			c7.179,3.418,14.301,6.955,21.22,10.884c0.364,0.416,0.177,0.836,0.001,1.249c-8.797,20.676-17.223,41.508-25.9,62.234
			c-0.406,0.97-0.805,1.956-1.98,2.259c-2.365,0.021-4.481-1.014-6.663-1.685c-7.538-2.316-15.108-4.512-22.716-6.585
			c-0.918-0.25-1.928-0.351-2.519-1.266c-0.179-1.444,0.135-2.805,0.686-4.135c8.212-19.842,16.432-39.681,24.676-59.509
			c0.4-0.964,0.781-1.937,1.196-2.894c0.434-1.002,0.659-1.918-0.183-2.899C359.084,32.125,359.229,31.055,360.153,30.115z"/>
		<path fill-rule="evenodd" clip-rule="evenodd" fill="#F16222" d="M360.153,30.115c-0.155,1.271-0.72,2.548,1.046,3.382
			c0.748,0.353-0.017,1.408-0.264,2.023c-2.163,5.384-4.404,10.736-6.63,16.095c-4.165,10.03-8.337,20.056-12.501,30.086
			c-2.395,5.77-4.716,11.573-7.228,17.292c-0.484,1.103,0.081,2.45-0.991,3.317c-0.285,0.206-0.573,0.196-0.864,0.017
			c-0.437-2.431-1.702-0.522-2.612-0.492c-4.042-0.361-7.804-1.89-11.714-2.801c-3.697-0.861-7.354-1.91-11.036-2.842
			c-0.915-0.231-1.947-0.315-2.468-1.315c2.242-2.611,3.101-5.917,4.376-8.988c8.623-20.766,17.157-41.568,25.854-62.304
			c0.463-1.103,0.736-2.273,1.269-3.349c7.697,2.708,15.253,5.762,22.594,9.333C359.37,29.756,359.693,30.075,360.153,30.115z"/>
		<path fill-rule="evenodd" clip-rule="evenodd" fill="#F26F21" d="M365.513,111.688c1.661-1.268,1.911-3.316,2.64-5.047
			c5.336-12.683,10.561-25.413,15.82-38.127c2.673-6.46,5.34-12.923,8.027-19.377c0.396-0.95,0.889-1.86,1.337-2.789
			c9.531,5.043,18.865,10.419,27.812,16.45c0.554,0.75,0.103,1.424-0.179,2.094c-7.769,18.559-15.421,37.166-23.143,55.744
			c-0.228,0.547-0.407,1.127-0.883,1.534c-0.991,0.494-1.915,0.065-2.811-0.264c-8.909-3.276-18.006-5.982-27.006-8.986
			C366.483,112.705,365.564,112.732,365.513,111.688z"/>
		<path fill-rule="evenodd" clip-rule="evenodd" fill="#EF4E23" d="M219.771,80.734c0.599-3.732,2.539-6.973,3.92-10.406
			c4.055-10.078,8.333-20.064,12.498-30.098c5.021-12.093,10.017-24.197,15.021-36.297c0.397-0.96,0.851-1.908,0.852-2.983
			c8.152,0.287,16.217,1.345,24.243,2.749c1.497,0.257,0.985,1.201,0.638,2.004c-1.537,3.56-2.985,7.156-4.471,10.738
			c-8.54,20.592-17.075,41.187-25.625,61.775c-0.729,1.756-1.093,3.739-2.632,5.095c-0.636,0.269-1.302,0.294-1.971,0.222
			c-6.708-0.721-13.435-1.227-20.157-1.782C221.221,81.68,220.265,81.7,219.771,80.734z"/>
		<path fill-rule="evenodd" clip-rule="evenodd" fill="#F37621" d="M396.913,122.067c0.637-3.327,2.331-6.259,3.584-9.346
			c4.087-10.07,8.335-20.075,12.499-30.113c2.737-6.595,5.437-13.206,8.153-19.81c8.591,5.301,16.854,11.068,24.703,17.42
			c0.28,0.704-0.054,1.304-0.319,1.919c-6.309,14.636-12.287,29.41-18.377,44.138c-0.541,1.308-1.14,2.59-1.669,3.903
			c-0.333,0.823-0.676,1.676-1.615,2.036c-0.682,0.189-1.324,0.021-1.953-0.229c-7.656-3.046-15.477-5.646-23.187-8.546
			C398.02,123.17,397.065,123.122,396.913,122.067z"/>
		<path fill-rule="evenodd" clip-rule="evenodd" fill="#F05822" d="M297.362,8.088c7.01,1.471,13.882,3.431,20.637,5.804
			c0.342,0.709-0.062,1.299-0.315,1.906c-9.368,22.428-18.664,44.886-27.936,67.354c-0.769,1.861-1.599,3.696-2.296,5.585
			c-0.284,0.768-0.542,1.575-1.471,1.838c-0.903,0.218-1.775-0.02-2.641-0.212c-5.29-1.176-10.602-2.246-15.934-3.213
			c-0.664-0.121-1.307-0.284-1.835-0.734c-0.869-1.083-0.295-2.148,0.124-3.153c10.153-24.366,20.204-48.775,30.308-73.162
			C296.322,9.331,296.701,8.619,297.362,8.088z"/>
		<path fill-rule="evenodd" clip-rule="evenodd" fill="#EF5323" d="M297.362,8.088c-3.28,8.049-6.541,16.106-9.847,24.144
			c-3.42,8.317-6.877,16.62-10.331,24.924c-3.567,8.578-7.15,17.15-10.728,25.725c-0.429,1.028-0.923,2.036-0.938,3.186
			c-0.746,0.779-1.652,0.495-2.513,0.344c-5.34-0.939-10.719-1.599-16.091-2.309c-0.935-0.123-1.983-0.032-2.476-1.134
			c2.541-6.275,5.052-12.562,7.628-18.823c6.315-15.353,12.649-30.699,19.002-46.037c1.767-4.266,3.619-8.496,5.456-12.731
			c0.279-0.642,0.619-1.217-0.22-1.679c6.695,0.919,13.273,2.394,19.787,4.172C296.504,7.983,296.938,8.018,297.362,8.088z"/>
		<path fill-rule="evenodd" clip-rule="evenodd" fill="#F05D22" d="M286.092,90.175c2.331-5.534,4.683-11.059,6.988-16.603
			c5.079-12.218,10.115-24.454,15.208-36.667c3.204-7.685,6.143-15.481,9.711-23.013c5.067,1.422,10.098,2.939,14.88,5.19
			c1.106,0.52,2.338,0.776,3.512,1.153c0.869,1.392-0.308,2.456-0.738,3.514c-4.1,10.059-8.332,20.064-12.498,30.096
			c-5.022,12.092-10.016,24.197-15.024,36.294c-0.456,1.101-0.956,2.182-1.403,3.285c-0.348,0.857-0.922,1.327-1.871,1.274
			c-0.737,0.61-1.555,0.372-2.341,0.179c-4.908-1.203-9.845-2.291-14.737-3.559C287.106,91.145,286.227,91.181,286.092,90.175z"/>
		<path fill-rule="evenodd" clip-rule="evenodd" fill="#F47D20" d="M461.517,93.354c2.647,1.674,4.731,3.997,6.947,6.15
			c5.21,5.063,10.452,10.101,15.027,15.771c-1.042,2.995-2.436,5.845-3.638,8.774c-3.275,7.984-6.58,15.955-9.919,23.913
			c-0.603,1.436-0.911,3.258-2.953,3.564c-0.69-0.035-1.291-0.344-1.886-0.649c-6.83-3.498-13.756-6.795-20.756-9.938
			c-0.702-0.315-1.647-0.424-1.789-1.465c5.403-13.747,11.213-27.328,16.879-40.967C460.142,96.795,460.577,94.971,461.517,93.354z"
			/>
		<path fill-rule="evenodd" clip-rule="evenodd" fill="#F37A20" d="M461.517,93.354c0.264,1.744-0.658,3.184-1.276,4.672
			c-5.331,12.848-10.69,25.684-16.093,38.503c-0.424,1.006,0.006,2.485-1.484,2.965c-0.807,0.601-1.591,0.173-2.304-0.145
			c-4.871-2.179-9.857-4.068-14.818-6.024c-0.699-0.275-1.657-0.373-1.751-1.441c2.089-3.118,3.062-6.736,4.538-10.128
			c5.996-13.78,11.205-27.893,17.524-41.537C451.425,84.178,456.564,88.653,461.517,93.354z"/>
		<path fill-rule="evenodd" clip-rule="evenodd" fill="#F48220" d="M466.969,151.131c1.81-0.423,1.943-2.164,2.475-3.432
			c4.103-9.79,8.103-19.622,12.109-29.451c0.461-1.13,1.271-1.997,1.938-2.973c6.485,7.121,12.349,14.717,17.498,22.861
			c-0.473,2.738-1.818,5.165-2.845,7.694c-2.383,5.871-4.844,11.711-7.271,17.565c-0.341,0.823-0.598,1.699-1.393,2.241
			c-0.931,0.402-1.548-0.198-2.187-0.7c-5.911-4.652-12.307-8.554-18.861-12.215C467.814,152.375,466.762,152.293,466.969,151.131z"
			/>
		<path fill-rule="evenodd" clip-rule="evenodd" fill="#F5861F" d="M489.271,165.657c3.453-8.333,6.924-16.659,10.332-25.01
			c0.371-0.91,0.898-1.689,1.387-2.511c7.093,10.383,13.022,21.38,17.511,33.14c-0.926,6.275-4.233,11.694-6.329,17.548
			c-0.44,1.229-0.949,2.591-2.638,2.689c-0.917-0.268-1.178-1.1-1.497-1.832c-3.793-8.668-9.974-15.458-16.953-21.625
			C490.317,167.38,489.322,166.874,489.271,165.657z"/>
		<path fill-rule="evenodd" clip-rule="evenodd" fill="#F37621" d="M287.44,459.546c0.479,0.835,0.427,1.598,0.041,2.522
			c-7.695,18.448-15.349,36.914-23.004,55.38c-0.711,1.716-1.398,3.442-2.06,5.177c-0.313,0.822-0.733,1.673-0.049,2.527
			c-8.519-0.922-16.876-2.736-25.218-4.62c-1.946-0.439-3.854-1.049-5.779-1.579c2.909-5.819,5.138-11.932,7.657-17.917
			c2.956-7.022,5.816-14.087,8.737-21.125c0.431-1.037,0.891-2.071,0.566-3.242c0.347-1.034,1.339-1.122,2.155-1.387
			c9.407-3.051,18.379-7.145,27.292-11.374c2.426-1.15,4.688-2.639,7.14-3.754C285.712,459.792,286.463,459.182,287.44,459.546z"/>
		<path fill-rule="evenodd" clip-rule="evenodd" fill="#EC2724" d="M0.972,300.49c2.439-4.125,3.84-8.706,5.691-13.086
			c5.479-12.961,10.84-25.973,16.227-38.975c4.047-9.768,8.062-19.549,12.092-29.323c1.561-3.786,3.118-7.573,4.683-11.357
			c0.203-0.491,0.458-0.956,1.09-0.987c1.41,2.124,0.802,4.49,0.628,6.723c-0.418,5.366-0.232,10.704-0.041,16.073
			c0.181,5.05,0.86,10.099,0.424,15.164c-3.149,4.864-4.824,10.405-7.033,15.692c-9.075,21.715-18.053,43.47-27.029,65.226
			c-0.143,0.346-0.265,0.702-0.451,1.025c-0.366,0.637-0.648,1.464-1.569,1.371c-0.823-0.083-0.903-0.881-1.113-1.507
			c-1.374-5.264-2.055-10.649-2.737-16.027C1.414,307.182,0.923,303.856,0.972,300.49z"/>
		<path fill-rule="evenodd" clip-rule="evenodd" fill="#ED2D24" d="M4.573,326.529c1.185,2.037,1.792,0.931,2.354-0.433
			c3.917-9.484,7.832-18.97,11.752-28.453c4.971-12.025,9.95-24.047,14.917-36.074c1.987-4.81,3.948-9.631,5.93-14.443
			c0.336-0.816,0.574-1.754,1.73-1.791c0.822,0.33,0.992,1.06,1.052,1.813c0.772,9.698,2.021,19.338,3.544,28.945
			c0.082,0.514,0.071,1.037-0.007,1.552c-8.65,17.884-15.43,36.567-23.251,54.808c-2.414,5.628-4.771,11.284-7.015,16.984
			c-0.411,1.043-0.873,2.075-1.526,2.988c-0.535,0.749-1.179,1.274-1.874,0.113c-2.996-7.137-4.957-14.595-6.805-22.085
			C5.055,329.159,4.837,327.838,4.573,326.529z"/>
		<path fill-rule="evenodd" clip-rule="evenodd" fill="#F26F21" d="M248.401,476.735c1.169,0.171,0.956,0.827,0.626,1.62
			c-4.328,10.423-8.639,20.853-12.954,31.281c-0.965,2.332-1.896,4.68-2.907,6.992c-0.395,0.903-0.483,2.106-1.797,2.323
			c-7.208-1.475-14.165-3.832-21.167-6.027c-1.475-0.462-2.903-1.072-4.354-1.613c-0.18-0.862,0.21-1.603,0.516-2.355
			c3.014-7.436,6.203-14.799,9.148-22.261c0.779-1.974,2.364-2.947,3.935-4.042c1.654-0.817,3.489-0.787,5.246-1.042
			c7.113-1.031,14.037-2.847,20.936-4.796C246.53,476.562,247.458,476.021,248.401,476.735z"/>
		<path fill-rule="evenodd" clip-rule="evenodd" fill="#ED3124" d="M12.18,352.539c1.363,0.843,1.507-0.431,1.808-1.137
			c2.77-6.511,5.515-13.032,8.228-19.567c5.027-12.104,10.033-24.218,15.037-36.332c1.99-4.818,3.982-9.635,5.901-14.481
			c0.491-1.239,1.658-1.915,2.204-3.069c0.739,0.143,0.881,0.76,0.976,1.34c1.017,6.256,2.636,12.396,3.609,18.659
			c-0.001,0.972-0.057,1.932-0.449,2.85c-9.462,22.174-18.471,44.534-27.812,66.758c-0.394,0.938-0.642,2.363-2.299,1.564
			C16.459,363.822,14.198,358.233,12.18,352.539z"/>
		<path fill-rule="evenodd" clip-rule="evenodd" fill="#EE4823" d="M72.177,436.056c-6.072-4.995-11.641-10.516-17.003-16.252
			c2.837-7.033,5.765-14.029,8.686-21.028c3.495-8.374,6.875-16.797,10.462-25.134c0.82-0.333,1.084,0.335,1.305,0.833
			c3.586,8.099,7.642,15.968,11.642,23.865c0.136,0.268,0.136,0.575,0.14,0.875c-0.19,2.192-1.084,4.169-1.902,6.168
			c-3.695,9.038-7.524,18.02-11.202,27.064C73.78,433.734,73.354,435.131,72.177,436.056z"/>
		<path fill-rule="evenodd" clip-rule="evenodd" fill="#EE3F23" d="M45.664,409.075c-4.023-4.543-7.727-9.332-11.067-14.399
			c1.071-0.637,1.675-1.594,2.153-2.742c7.252-17.423,14.393-34.892,21.703-52.29c0.454-1.079,0.745-2.337,2.234-2.513
			c0.667,0.195,0.889,0.775,1.072,1.334c2.063,6.305,4.412,12.508,6.696,18.733c0.128,0.351,0.169,0.725,0.166,1.101
			c-5.358,10.403-9.177,21.47-13.808,32.188c-2.424,5.607-4.658,11.299-7.092,16.903C47.357,408.23,47.262,409.639,45.664,409.075z"
			/>
		<path fill-rule="evenodd" clip-rule="evenodd" fill="#ED3A23" d="M60.555,337.263c-1.459,1.127-1.755,2.926-2.395,4.463
			c-5.895,14.147-11.687,28.338-17.522,42.51c-1.247,3.027-2.542,6.035-3.836,9.043c-0.407,0.944-0.752,2.067-2.205,1.397
			c-3.132-4.122-5.909-8.475-8.428-12.995c2.026-2.409,2.744-5.458,3.914-8.262c7.303-17.516,14.551-35.054,21.813-52.587
			c0.592-1.43,1.03-2.986,2.516-3.844c0.863,0.289,0.92,1.109,1.127,1.793c1.615,5.334,3.229,10.668,5.012,15.95
			C60.829,335.553,61.252,336.419,60.555,337.263z"/>
		<path fill-rule="evenodd" clip-rule="evenodd" fill="#ED3623" d="M54.284,317.062c-8.208,18.75-15.783,37.765-23.631,56.664
			c-0.914,2.202-1.918,4.368-2.75,6.6c-0.338,0.907-0.746,1.423-1.733,1.354c-2.541-4.035-4.839-8.202-6.786-12.558
			c0.939,0.119,1.307-0.485,1.611-1.226c5.429-13.213,10.831-26.437,16.311-39.628c3.852-9.273,7.799-18.507,11.743-27.741
			c0.345-0.807,0.195-1.613,0.354-2.407c0.994,0.275,1.062,1.188,1.23,1.944c1.101,4.931,2.475,9.79,3.785,14.667
			C54.625,315.502,54.922,316.321,54.284,317.062z"/>
		<path fill-rule="evenodd" clip-rule="evenodd" fill="#EF4E23" d="M72.177,436.056c2.55-6.158,5.104-12.315,7.649-18.475
			c2.123-5.137,4.253-10.271,6.338-15.422c0.383-0.945,0.565-1.973,0.839-2.962c0.937-0.195,1.103,0.621,1.396,1.149
			c4.238,7.647,8.849,15.062,13.833,22.244c0.381,0.549,0.769,1.113,0.749,1.836c-3.497,8.437-6.999,16.871-10.485,25.312
			c-0.281,0.68-0.395,1.682-1.561,1.518C84.348,446.603,78.082,441.552,72.177,436.056z"/>
		<path fill-rule="evenodd" clip-rule="evenodd" fill="#EE4323" d="M45.664,409.075c0.716-0.022,1.028-0.518,1.265-1.091
			c3.346-8.097,6.683-16.198,10.037-24.292c3.126-7.546,6.302-15.071,9.372-22.64c0.438-1.079,1.573-1.57,1.838-2.696
			c0.711-0.12,0.899,0.444,1.078,0.905c1.625,4.18,3.471,8.268,5.13,12.434c0.24,0.604,0.606,1.242,0.077,1.895
			c-0.563,3.497-2.293,6.578-3.596,9.798c-4.106,10.148-8.315,20.256-12.59,30.335c-0.883,2.083-1.252,4.475-3.101,6.081
			C51.812,416.397,48.604,412.854,45.664,409.075z"/>
		<path fill-rule="evenodd" clip-rule="evenodd" fill="#F16522" d="M184.332,503.231c-7.925-2.883-15.524-6.518-23.151-10.082
			c-3.099-1.448-6.123-3.058-9.181-4.594c-0.44-0.638-0.255-1.295-0.016-1.924c1.51-3.967,3.161-7.876,4.861-11.765
			c0.236-0.542,0.523-1.077,1.083-1.383c0.623-0.118,1.173,0.121,1.719,0.358c10.314,4.472,21.087,7.262,32.204,8.792
			c1.945,0.486,2.198,1.711,1.528,3.399c-2.03,5.115-4.199,10.173-6.342,15.24C186.573,502.372,186.038,503.7,184.332,503.231z"/>
		<path fill-rule="evenodd" clip-rule="evenodd" fill="#F26B22" d="M184.332,503.231c1.471-0.134,1.862-1.355,2.309-2.419
			c2.142-5.102,4.194-10.242,6.368-15.33c0.565-1.323,0.105-1.909-1.049-2.315c0.583-0.795,1.417-0.629,2.224-0.592
			c4.714,0.215,9.411,0.792,14.14,0.682c1.679,0.058,3.363,0.237,5.025-0.182c0.854-0.186,1.721-0.201,2.589-0.201
			c0.819,0.039,1.636,0.024,2.446-0.137c0.365-0.012,0.697,0.062,0.938,0.368c-5.524,5.519-6.521,13.281-9.837,19.896
			c-1.354,2.699-2.431,5.536-3.634,8.311c-3.129-0.614-5.999-1.994-8.966-3.076C192.651,506.691,188.382,505.233,184.332,503.231z"
			/>
		<path fill-rule="evenodd" clip-rule="evenodd" fill="#F05822" d="M129.215,476.298c-7.438-4.061-14.663-8.468-21.614-13.317
			c-0.928-1.367-0.421-2.731,0.105-4.031c1.974-4.875,4.082-9.696,6.022-14.583c0.741-1.865,1.738-2.621,3.665-1.946
			c0.744,0.077,1.12,0.666,1.576,1.143c5.03,5.248,10.3,10.238,15.976,14.79c0.691,0.554,1.396,1.117,1.689,2.017
			c-0.375,3.181-2.214,5.831-3.199,8.793c-0.612,1.841-1.49,3.588-2.246,5.378C130.823,475.404,130.526,476.45,129.215,476.298z"/>
		<path fill-rule="evenodd" clip-rule="evenodd" fill="#EF5323" d="M117.506,442.824c-2.852-0.919-3.118,1.475-3.821,3.105
			c-1.729,4.011-3.287,8.096-5.012,12.107c-0.688,1.603-1.148,3.201-1.073,4.943c-5.788-3.577-11.351-7.474-16.665-11.724
			c1.926-2.858,2.775-6.201,4.13-9.313c2.285-5.248,4.363-10.586,6.559-15.874c0.252-0.607,0.704-1.132,1.064-1.695
			c0.796-0.363,1.05,0.352,1.344,0.77c4.072,5.781,8.79,11.055,13.079,16.665C117.343,442.111,117.513,442.432,117.506,442.824z"/>
		<path fill-rule="evenodd" clip-rule="evenodd" fill="#F05E22" d="M129.215,476.298c1.779-1.169,1.888-3.252,2.632-4.96
			c1.588-3.644,3.007-7.361,4.496-11.049c0.889-0.501,1.398,0.262,1.931,0.668c5.597,4.263,11.49,8.044,17.787,11.194
			c0.721,0.36,1.486,0.731,1.813,1.575c-1.869,4.979-4.322,9.726-5.874,14.829C144.211,484.83,136.597,480.78,129.215,476.298z"/>
		<path fill-rule="evenodd" clip-rule="evenodd" fill="#EC2024" d="M76.654,86.45c0.295,2.698-1.259,4.864-2.191,7.168
			c-4.129,10.212-8.38,20.375-12.609,30.546c-5.373,12.921-10.776,25.83-16.148,38.751c-3.972,9.553-7.915,19.119-11.87,28.679
			c-4.979,12.036-9.959,24.071-14.935,36.108c-5.316,12.863-10.619,25.731-15.96,38.584c-0.317,0.764-0.447,1.821-1.624,1.914
			c0.353-8.603,1.77-17.073,3.378-25.503c5.84-30.625,16.659-59.545,30.192-87.52c11.436-23.64,24.598-46.244,40.466-67.217
			C75.753,87.431,76.219,86.952,76.654,86.45z"/>
		<path fill-rule="evenodd" clip-rule="evenodd" fill="#EE3F23" d="M215.739,1.766c-2.965,4.701-4.596,10.001-6.725,15.075
			c-5.416,12.909-10.864,25.806-16.116,38.783c-3.154,7.794-6.753,15.41-9.456,23.385c-0.652,0.578-1.459,0.543-2.25,0.573
			c-1.539,0-3.09-0.199-4.601,0.285c-3.113-0.021-6.19,0.899-9.321,0.362c-1.378-1.178-0.303-2.395,0.124-3.424
			c2.625-6.342,5.211-12.7,7.852-19.035c6.975-16.734,13.904-33.486,20.847-50.232c0.359-0.866,0.476-1.711,0.325-2.615
			C202.757,3.251,209.22,2.333,215.739,1.766z"/>
		<path fill-rule="evenodd" clip-rule="evenodd" fill="#ED2D24" d="M126.463,36.771c7.479-5.62,15.29-10.707,23.7-14.838
			c1.046,0.791,1.08,0.804,0.477,2.388c-1.433,3.766-3.028,7.467-4.564,11.191c-7.253,17.585-14.7,35.091-21.753,52.76
			c-0.083,0.208-0.2,0.399-0.325,0.586c-1.33,1.172-3.071,1.457-4.65,2.044c-4.738,1.763-9.343,3.801-13.843,6.099
			c-0.891,0.454-1.748,1.202-2.895,0.798c-0.789-1.302-0.08-2.469,0.398-3.61c7.404-17.704,14.685-35.458,22.045-53.181
			C125.625,39.633,126.246,38.267,126.463,36.771z"/>
		<path fill-rule="evenodd" clip-rule="evenodd" fill="#ED3A23" d="M196.417,4.921c1.287,0.256,0.979,1.09,0.649,1.881
			c-4.519,10.853-9.063,21.695-13.569,32.554c-4.077,9.827-8.118,19.67-12.169,29.508c-1.501,3.646-2.988,7.297-4.482,10.945
			c-0.127,0.181-0.245,0.423-0.456,0.463c-4.536,0.869-9.071,1.758-13.726,1.633c-1.115-1.12-0.347-2.251,0.074-3.299
			c3.149-7.826,6.418-15.603,9.643-23.398c5.962-14.418,11.98-28.813,17.894-43.251c0.398-0.974,0.661-1.981,0.908-2.996
			C186.131,7.127,191.235,5.878,196.417,4.921z"/>
		<path fill-rule="evenodd" clip-rule="evenodd" fill="#EC2724" d="M126.463,36.771c0.841,0.732,0.342,1.473,0.029,2.226
			c-7.677,18.495-15.352,36.99-23.02,55.488c-0.428,1.03-0.869,2.068-0.767,3.229c-0.138,0.958-0.933,1.289-1.637,1.692
			c-7.354,4.202-14.168,9.131-20.297,14.994c-0.653,0.625-1.295,1.599-2.464,0.823c-0.596-1.075-0.057-2.037,0.337-2.986
			c6.43-15.501,12.839-31.012,19.263-46.516c0.968-2.336,1.909-4.685,2.97-6.982C108.75,50.651,117.272,43.322,126.463,36.771z"/>
		<path fill-rule="evenodd" clip-rule="evenodd" fill="#ED3123" d="M123.787,88.676c0.976-4.388,3.11-8.34,4.781-12.457
			c6.318-15.561,12.79-31.059,19.209-46.579c0.824-1.992,1.667-3.976,2.517-5.957c0.265-0.619,0.686-1.225-0.13-1.752
			c5.46-3.215,11.203-5.825,17.139-8.024c0.745,0.891,0.752,0.894,0.172,2.298c-3.1,7.513-6.192,15.029-9.322,22.529
			c-5.972,14.312-11.862,28.659-17.808,42.982c-0.427,1.029-0.733,2.125-1.583,2.927c-2.008,1.409-4.472,1.452-6.698,2.21
			c-2.027,0.69-4.114,1.208-6.176,1.796C125.205,88.845,124.492,89.243,123.787,88.676z"/>
		<path fill-rule="evenodd" clip-rule="evenodd" fill="#ED3623" d="M138.589,84.312c3.444-8.315,6.879-16.635,10.333-24.946
			c5.369-12.914,10.79-25.806,16.09-38.748c0.89-2.175,2.351-4.196,2.289-6.71c4.496-2.015,9.1-3.727,13.88-4.946
			c0.75,0.631,0.417,1.315,0.126,2.022c-3.454,8.389-6.892,16.785-10.351,25.172c-4.225,10.243-8.467,20.479-12.7,30.719
			c-1.818,4.398-3.642,8.794-5.439,13.202c-0.191,0.47-0.22,1.006-0.324,1.512c-0.394,0.737-1.109,0.929-1.844,1.06
			c-3.343,0.596-6.669,1.268-9.984,2.007C139.943,84.817,139.198,84.929,138.589,84.312z"/>
		<path fill-rule="evenodd" clip-rule="evenodd" fill="#EC2324" d="M100.877,58.739c0.509,0.328,0.331,0.708,0.146,1.152
			c-7.13,17.089-14.264,34.178-21.344,51.289c-0.554,1.338-1.482,2.638-1.13,4.243c-0.61,2.088-2.549,3.166-3.716,4.842
			c-0.876,1.259-2.177,2.197-3.162,3.403c-0.292,0.357-0.625,0.908-1.257,0.452c0.16-3.068,1.829-5.625,2.942-8.348
			c6.158-15.045,12.44-30.04,18.624-45.074c0.371-0.901,1.452-1.881,0.336-3.011C95.004,64.545,97.745,61.455,100.877,58.739z"/>
		<path fill-rule="evenodd" clip-rule="evenodd" fill="#EE4823" d="M222.889,1.006c-0.847,0.632-1.815,0.241-2.727,0.319
			C221.037,0.934,221.961,0.957,222.889,1.006z"/>
		<path fill-rule="evenodd" clip-rule="evenodd" fill="#F5861F" d="M468.112,293.278c1.066,0.413,1.245,1.286,0.46,1.889
			c-2.328,1.786-2.738,4.581-3.751,6.983c-6.908,16.396-13.672,32.852-20.465,49.295c-4.774,11.558-9.5,23.136-14.288,34.688
			c-6.414,15.474-12.886,30.924-19.299,46.397c-4.104,9.902-8.125,19.838-12.221,29.744c-5.148,12.451-10.336,24.888-15.504,37.331
			c-1.057,2.543-2.106,5.089-3.159,7.634c-9.378,5.139-19.316,8.919-29.496,12.099c-2.692,0.841-5.449,1.479-8.177,2.211
			c0.188-3.228,1.979-5.902,3.135-8.776c4.107-10.223,8.376-20.381,12.605-30.554c5.374-12.923,10.779-25.833,16.151-38.757
			c3.973-9.555,7.916-19.122,11.872-28.684c5.01-12.105,10.017-24.213,15.03-36.317c1.51-3.646,3.033-7.285,4.565-10.921
			c0.241-0.573,0.527-1.109-0.159-1.569c-0.194-0.994,0.579-1.48,1.129-2.041c16.046-16.351,31.188-33.499,45.585-51.316
			c4.689-5.803,9.288-11.674,13.846-17.579C466.54,294.3,466.92,293.276,468.112,293.278z"/>
		<path fill-rule="evenodd" clip-rule="evenodd" fill="#FDFDFD" d="M468.112,293.278c-3.525,4.488-7.038,8.986-10.579,13.462
			c-13.515,17.081-27.707,33.576-42.723,49.357c-3.132,3.292-6.265,6.582-9.397,9.874c-4.321,4.22-8.611,8.473-12.969,12.654
			c-9.689,9.298-19.603,18.349-29.893,26.982c-0.394,0.33-0.723,0.737-1.082,1.109c-1.045,1.446-2.198,2.761-3.986,3.314
			c-0.582,0.248-1.068,0.612-1.393,1.167c-7.592,5.916-15.147,11.879-22.788,17.731c-4.912,3.763-9.949,7.361-14.931,11.034
			c-4.781,3.197-9.5,6.494-14.361,9.564c-5.456,3.446-11.041,6.688-16.57,10.018c-9.385,4.91-18.852,9.646-28.777,13.392
			c-3.413,1.288-6.841,2.532-10.262,3.797c-6.307,1.651-12.537,3.614-18.979,4.716c-3.363,0.575-6.734,1.104-10.101,1.654
			c-0.309,0.022-0.618,0.045-0.926,0.066c-0.732,0.265-1.557-0.149-2.264,0.306c-0.887,0.038-1.774,0.075-2.662,0.113
			c-1.636,0.39-3.339-0.211-4.964,0.335c-5.527-0.006-11.039-0.326-16.545-0.759c-11.846-1.4-23.207-4.552-34.086-9.44
			c-7.675-3.682-14.72-8.372-21.531-13.438c-6.694-5.374-12.872-11.305-18.836-17.465c-4.721-5.375-9.184-10.957-13.428-16.715
			c-0.439-0.596-0.925-1.158-1.39-1.735c-5.595-8.164-10.737-16.61-15.685-25.177c-4.38-8.438-8.497-17.006-12.543-25.607
			c-2.095-5.078-4.19-10.156-6.285-15.233c-2.54-7.031-5.08-14.062-7.62-21.094c-2.09-6.733-4.181-13.467-6.271-20.2
			c-1.627-6.313-3.255-12.627-4.882-18.941c-1.349-6.723-2.697-13.446-4.045-20.169c-0.838-6.132-1.72-12.259-2.5-18.398
			c-0.601-4.731-1.072-9.479-1.601-14.218c-0.345-9.364-1.039-18.718-0.815-28.098c0.083-3.492,0.208-6.983,0.313-10.475
			c1.021-12.95,2.624-25.792,6.325-38.311c4.002-13.54,9.992-26.098,18.125-37.628c1.629-2.31,3.467-4.473,5.208-6.705
			c2.711-2.899,5.423-5.798,8.135-8.697c5.311-4.626,10.604-9.277,16.589-13.043c2.508-1.578,5.045-3.111,7.569-4.666
			c6.8-3.542,13.84-6.522,21.081-9.038c4.934-1.455,9.869-2.91,14.803-4.365c4.634-0.908,9.269-1.815,13.904-2.723
			c4.784-0.593,9.568-1.187,14.353-1.779c3.294-0.17,6.589-0.34,9.883-0.511c1.539-0.377,3.138,0.145,4.672-0.311
			c0.678,0.219,1.359,0.196,2.041,0.021c4.484,0.101,8.969,0.202,13.454,0.302c7.625,0.475,15.25,0.949,22.875,1.423
			c6.294,0.597,12.588,1.201,18.885,1.786c1.925,0.179,3.855,0.301,5.783,0.449c7.026,1.033,14.053,2.066,21.08,3.099
			c6.857,1.369,13.716,2.738,20.573,4.108c6.255,1.508,12.51,3.016,18.764,4.523c8.455,2.453,16.967,4.688,25.525,6.748
			c0.861,0.058,1.782-0.083,2.416,0.729c0.264,0.045,0.526,0.089,0.789,0.134c8.496,2.516,16.992,5.037,25.491,7.546
			c2.14,0.631,4.29,1.222,6.436,1.832c7.234,2.395,14.468,4.792,21.702,7.185c3.231,1.068,6.466,2.129,9.698,3.194
			c8.959,3.272,17.918,6.544,26.877,9.816c6.291,2.537,12.582,5.073,18.873,7.61c8.149,3.778,16.327,7.501,24.306,11.637
			c7.703,4.429,15.247,9.102,22.302,14.526c5.357,4.724,10.557,9.582,14.624,15.536c2.229,3.263,3.916,6.795,5.639,10.321
			c2.319,6.915,3.599,13.947,2.928,21.297c-1.051,11.525-5.292,21.944-10.797,31.939c-7.834,14.223-17.871,26.948-27.346,40.054
			C472.267,287.642,470.182,290.454,468.112,293.278z"/>
		<path fill-rule="evenodd" clip-rule="evenodd" fill="#F47D20" d="M357.483,410.032c1.29-1.152,2.415-2.502,3.986-3.314
			c0.174,1.834-0.525,3.183-2.258,3.892C358.524,410.891,357.741,411.171,357.483,410.032z"/>
		<path fill-rule="evenodd" clip-rule="evenodd" fill="#F16822" d="M332.797,102.176c-0.839-0.13-1.68-0.257-2.416-0.729
			c0.785-0.273,0.88-1.812,2.063-1.25C333.319,100.612,332.916,101.468,332.797,102.176z"/>
		<path fill-rule="evenodd" clip-rule="evenodd" fill="#F26F21" d="M208.505,483.926c1.634-0.418,3.301-0.352,4.964-0.335
			C211.858,484.346,210.158,483.774,208.505,483.926z"/>
		<path fill-rule="evenodd" clip-rule="evenodd" fill="#F26F21" d="M216.131,483.478c0.715-0.395,1.489-0.353,2.264-0.306
			C217.703,483.733,216.892,483.416,216.131,483.478z"/>
		<path fill-rule="evenodd" clip-rule="evenodd" fill="#EE4323" d="M181.401,78.988c-1.521,0.645-3.115,0.209-4.672,0.311
			C178.243,78.543,179.843,79.08,181.401,78.988z"/>
		<path fill-rule="evenodd" clip-rule="evenodd" fill="#898B8E" d="M285.87,252.907c-1.528,8.982-3.799,17.781-5.608,26.678
			c-0.349,1.713-1.167,2.566-3.053,2.5c-3.283-0.114-6.573-0.07-9.859-0.015c-1.56,0.026-2.441-0.443-2.849-2.115
			c-3.375-13.833-6.804-27.653-10.3-41.456c-0.473-1.866,0.173-2.253,1.821-2.208c2.389,0.065,4.791,0.15,7.169-0.024
			c2.02-0.147,2.738,0.736,3.112,2.569c1.965,9.64,4.019,19.262,6.048,28.888c0.137,0.646,0.327,1.281,0.614,2.393
			c1.738-10.92,4.41-21.149,6.742-31.454c0.416-1.84,1.195-2.487,3.024-2.386c2.309,0.128,4.635,0.115,6.945,0.002
			c1.583-0.078,2.305,0.582,2.624,2.059c2.226,10.269,4.825,20.458,6.844,30.901c0.59-2.854,1.155-5.713,1.776-8.56
			c1.621-7.428,3.318-14.84,4.864-22.283c0.356-1.713,1.195-2.163,2.78-2.11c2.537,0.084,5.088,0.146,7.616-0.019
			c1.883-0.123,2.052,0.509,1.639,2.135c-2.278,8.96-4.469,17.941-6.686,26.917c-1.162,4.703-2.383,9.395-3.442,14.12
			c-0.439,1.96-1.386,2.732-3.406,2.649c-3.207-0.13-6.424-0.073-9.636-0.018c-1.587,0.027-2.421-0.5-2.768-2.184
			c-1.757-8.539-3.972-16.983-5.337-25.605C286.467,253.78,286.473,253.224,285.87,252.907z"/>
		<path fill-rule="evenodd" clip-rule="evenodd" fill="#898B8E" d="M123.369,204.952c-0.45-8.357-0.273-16.724-0.365-25.086
			c-0.023-2.125,0.649-2.981,2.852-2.8c2.153,0.176,4.333,0.098,6.498,0.016c1.301-0.049,1.843,0.281,1.838,1.722
			c-0.048,13.974-0.046,27.949-0.005,41.923c0.005,1.583-0.659,2.136-2.129,2.128c-4.036-0.022-8.071-0.036-12.106,0.005
			c-1.838,0.019-2.566-1.205-3.277-2.582c-4.759-9.219-9.537-18.429-14.312-27.64c-0.202-0.39-0.427-0.767-0.942-1.686
			c0,1.887-0.09,3.232,0.015,4.562c0.673,8.507,0.131,17.027,0.338,25.537c0.032,1.32-0.307,1.892-1.739,1.827
			c-2.312-0.104-4.633-0.074-6.948-0.013c-1.673,0.044-2.451-0.561-2.446-2.343c0.038-13.75,0.039-27.5-0.003-41.25
			c-0.005-1.676,0.633-2.223,2.259-2.193c4.109,0.076,8.221,0.077,12.33-0.005c1.3-0.026,1.983,0.413,2.578,1.565
			c5,9.681,10.066,19.328,15.112,28.986C124.122,206.914,123.472,205.887,123.369,204.952z"/>
		<path fill-rule="evenodd" clip-rule="evenodd" fill="#898B8E" d="M172.215,258.975c0.161,2.769,0.003,5.514-0.664,8.216
			c-2.314,9.374-8.736,14.716-18.493,15.312c-3.282,0.201-6.567,0.166-9.79-0.616c-7.696-1.868-12.46-6.731-14.376-14.354
			c-1.424-5.664-1.441-11.384,0.003-17.046c1.969-7.718,6.813-12.549,14.681-14.258c4.905-1.065,9.79-1.01,14.612,0.308
			c8.321,2.274,13.489,9.117,14.016,18.41C172.28,256.285,172.215,257.632,172.215,258.975z"/>
		<path fill-rule="evenodd" clip-rule="evenodd" fill="#898B8E" d="M259.218,318.27c0.159,2.769,0.018,5.516-0.671,8.215
			c-2.385,9.339-8.686,14.61-18.328,15.218c-3.351,0.212-6.71,0.192-10.009-0.625c-7.391-1.831-12.134-6.389-14.128-13.754
			c-1.696-6.265-1.692-12.554,0.162-18.76c2.098-7.021,6.808-11.373,13.984-13.042c4.357-1.014,8.732-1.1,13.095-0.228
			c9.475,1.895,15.235,8.72,15.883,18.724C259.297,315.429,259.218,316.852,259.218,318.27z"/>
		<path fill-rule="evenodd" clip-rule="evenodd" fill="#898B8E" d="M264.654,318.07c-0.146-2.398,0.068-4.775,0.579-7.114
			c2.235-10.235,9.297-15.913,20.13-16.225c3.45-0.099,6.845,0.206,10.165,1.22c6.113,1.866,10.126,5.924,12.014,11.938
			c2.081,6.631,2.112,13.375,0.188,20.063c-2.036,7.075-6.713,11.473-13.892,13.1c-5.179,1.173-10.381,1.124-15.488-0.377
			c-8.1-2.379-13.216-9.639-13.688-19.249C264.607,320.311,264.654,319.189,264.654,318.07z"/>
		<path fill-rule="evenodd" clip-rule="evenodd" fill="#898B8E" d="M368.618,259.02c0-6.724,0.06-13.447-0.037-20.169
			c-0.027-1.944,0.56-2.663,2.553-2.573c6.48,0.29,13.008-0.553,19.451,0.583c10.663,1.878,15.274,12.562,9.102,20.897
			c-0.993,1.341-2.189,2.491-3.604,3.315c-1.285,0.749-1.336,1.35-0.512,2.55c3.633,5.294,7.173,10.651,10.72,16.002
			c0.388,0.585,1.196,1.157,0.765,1.951c-0.427,0.784-1.348,0.46-2.061,0.466c-3.137,0.027-6.276-0.055-9.411,0.042
			c-1.384,0.043-2.147-0.445-2.823-1.645c-2.563-4.552-5.307-9.003-7.834-13.574c-0.731-1.323-1.65-1.583-2.906-1.375
			c-1.547,0.256-0.883,1.523-0.897,2.341c-0.07,3.958-0.075,7.919-0.012,11.877c0.028,1.746-0.693,2.417-2.412,2.365
			c-2.537-0.076-5.082-0.098-7.618,0.007c-1.82,0.074-2.518-0.553-2.495-2.442C368.669,272.766,368.618,265.893,368.618,259.02z"/>
		<path fill-rule="evenodd" clip-rule="evenodd" fill="#898B8E" d="M254.261,210.389c-4.035-0.013-8.071,0.024-12.104-0.065
			c-1.421-0.031-1.986,0.347-1.93,1.867c0.109,2.985,0,5.977,0.046,8.966c0.019,1.22-0.383,1.748-1.68,1.714
			c-2.837-0.071-5.681-0.098-8.517,0.006c-1.866,0.068-2.565-0.734-2.546-2.509c0.038-3.437,0.01-6.875,0.009-10.312
			c0-10.013-0.005-20.026,0.003-30.04c0.002-2.83,0.092-2.905,2.888-2.911c2.466-0.004,4.938,0.101,7.396-0.034
			c1.927-0.105,2.469,0.731,2.453,2.503c-0.054,6.052,0.053,12.107-0.064,18.157c-0.037,1.879,0.517,2.431,2.375,2.347
			c3.281-0.148,6.576-0.11,9.86-0.01c1.462,0.044,1.907-0.395,1.888-1.874c-0.077-6.126,0.03-12.256-0.068-18.382
			c-0.032-1.984,0.468-2.879,2.632-2.749c2.755,0.166,5.529,0.089,8.292,0.018c1.226-0.031,1.702,0.301,1.693,1.619
			c-0.072,10.535-0.077,21.07-0.104,31.605c-0.369,0.4-0.839,0.628-1.367,0.655c-3.321,0.169-6.643,0.201-9.962-0.022
			C255.006,210.91,254.62,210.658,254.261,210.389z"/>
		<path fill-rule="evenodd" clip-rule="evenodd" fill="#898B8E" d="M195.988,328.768c-3.887-0.003-7.776,0.069-11.659-0.045
			c-1.682-0.05-2.388,0.307-2.279,2.175c0.17,2.905-0.011,5.829,0.07,8.742c0.036,1.297-0.435,1.672-1.682,1.64
			c-2.838-0.072-5.681-0.069-8.52-0.006c-1.681,0.038-2.414-0.541-2.408-2.339c0.05-13.753,0.046-27.506,0.003-41.259
			c-0.005-1.684,0.647-2.241,2.266-2.188c2.538,0.086,5.088,0.133,7.621-0.012c2.037-0.116,2.777,0.541,2.735,2.654
			c-0.119,6.052,0.022,12.109-0.082,18.161c-0.03,1.746,0.419,2.332,2.22,2.252c3.282-0.146,6.578-0.114,9.863-0.01
			c1.557,0.049,2.059-0.428,2.038-2.012c-0.083-6.053,0.02-12.108-0.062-18.161c-0.028-2.046,0.498-3.034,2.784-2.893
			c3.202,0.198,6.421,0.103,9.633,0.133c0.426,0.611,0.234,1.306,0.235,1.96c0.013,9.71,0.012,19.421,0.007,29.131
			c-0.001,2.459-0.199,2.702-2.638,2.771c-2.612,0.074-5.228,0.048-7.842,0.004C197.462,329.454,196.648,329.356,195.988,328.768z"
			/>
		<path fill-rule="evenodd" clip-rule="evenodd" fill="#898B8E" d="M293.572,209.661c2.05-10.625,5.125-20.364,7.69-30.237
			c0.473-1.82,1.321-2.4,3.112-2.351c3.723,0.102,7.449,0.031,11.441,0.031c-1.549,4.761-3.016,9.281-4.49,13.799
			c-3.191,9.779-6.432,19.542-9.545,29.345c-0.633,1.992-1.691,2.719-3.731,2.636c-3.132-0.128-6.273-0.076-9.409-0.017
			c-1.661,0.03-2.534-0.604-3.065-2.254c-4.432-13.765-8.93-27.509-13.465-41.24c-0.544-1.648-0.357-2.347,1.55-2.293
			c3.209,0.09,6.424,0.065,9.634,0.005c1.388-0.026,2.216,0.376,2.584,1.834C288.409,188.958,291.566,198.839,293.572,209.661z"/>
		<path fill-rule="evenodd" clip-rule="evenodd" fill="#898B8E" d="M346.191,271.861c-3.81-0.002-7.628,0.143-11.428-0.066
			c-1.98-0.109-2.584,0.71-2.917,2.397c-0.39,1.972-0.989,3.901-1.477,5.854c-0.304,1.215-0.937,2.007-2.299,2.005
			c-3.879-0.007-7.757-0.002-11.955-0.002c1.462-4.536,2.839-8.847,4.24-13.151c3.23-9.926,6.569-19.819,9.641-29.795
			c0.775-2.521,2.002-3.29,4.479-3.171c3.578,0.171,7.171,0.044,10.757,0.043c1.249,0,2.377,0.136,2.852,1.596
			c3.712,11.413,7.444,22.817,11.171,34.226c-0.17,0.142-0.305,0.362-0.533,0.385C354.532,272.605,350.342,273.028,346.191,271.861z
			"/>
		<path fill-rule="evenodd" clip-rule="evenodd" fill="#898B8E" d="M169.033,212.654c-4.033,0-8.067,0.039-12.1-0.026
			c-1.179-0.019-1.721,0.34-1.978,1.524c-0.489,2.256-1.153,4.474-1.73,6.711c-0.313,1.215-0.974,1.987-2.326,1.986
			c-3.872-0.006-7.743-0.002-11.908-0.002c1.256-3.901,2.426-7.575,3.621-11.241c3.512-10.774,7.072-21.533,10.514-32.329
			c0.608-1.908,1.603-2.595,3.559-2.536c3.806,0.114,7.618,0.042,11.427,0.029c1.368-0.005,2.41,0.273,2.915,1.821
			c3.651,11.198,7.367,22.375,11.057,33.56c0.045,0.137,0.023,0.296,0.032,0.445c-0.17,0.141-0.306,0.362-0.535,0.385
			C177.386,213.399,173.188,213.831,169.033,212.654z"/>
		<path fill-rule="evenodd" clip-rule="evenodd" fill="#898B8E" d="M103.894,341.75c-4.343,0.14-8.262-0.576-12.051-2.149
			c-1.159-0.48-1.598-1.136-1.566-2.351c0.061-2.314,0.078-4.634,0-6.947c-0.069-2.048,0.735-2.286,2.44-1.518
			c3.982,1.795,8.122,2.979,12.553,2.804c1.046-0.041,2.093-0.074,3.036-0.629c1.964-1.155,2.218-3.267,0.551-4.831
			c-1.393-1.308-3.182-1.933-4.871-2.708c-2.51-1.152-5.035-2.264-7.357-3.783c-4.608-3.016-6.337-7.415-5.9-12.706
			c0.447-5.41,3.539-8.977,8.547-10.716c7.584-2.635,14.992-1.466,22.255,1.486c0.94,0.382,0.792,0.851,0.511,1.541
			c-0.872,2.142-1.799,4.266-2.539,6.452c-0.545,1.615-1.461,1.836-2.918,1.328c-2.604-0.906-5.214-1.836-7.988-2.088
			c-3.109-0.284-5.051,0.409-5.377,2.054c-0.534,2.69,1.71,3.375,3.436,4.288c2.637,1.396,5.391,2.57,8.018,3.983
			c6.084,3.272,8.431,7.554,7.714,13.814c-0.654,5.716-4.66,10.071-10.778,11.815C108.993,341.638,106.342,341.901,103.894,341.75z"
			/>
		<path fill-rule="evenodd" clip-rule="evenodd" fill="#898B8E" d="M90.294,274.599c0-5.756,0-5.753,5.393-3.833
			c3.413,1.216,6.913,1.85,10.55,1.555c1.684-0.137,3.115-0.746,3.613-2.48c0.538-1.868-0.677-3.017-2.115-3.766
			c-3.109-1.619-6.361-2.968-9.432-4.651c-6.205-3.398-8.663-8.705-7.301-15.31c1.131-5.484,5.611-9.154,12.207-10.184
			c6.163-0.962,12.009,0.136,17.762,2.298c1.338,0.503,1.466,1.107,0.936,2.292c-0.852,1.905-1.668,3.835-2.336,5.81
			c-0.555,1.639-1.41,2.044-3.041,1.46c-1.961-0.703-4-1.188-6.005-1.765c-1.235-0.355-2.501-0.406-3.773-0.342
			c-1.565,0.078-3.092,0.413-3.542,2.15c-0.457,1.767,0.771,2.75,2.122,3.539c3.611,2.11,7.564,3.54,11.16,5.699
			c8.345,5.012,7.031,16.385,1.857,20.909c-2.557,2.236-5.468,3.62-8.776,4.142c-5.686,0.896-11.276,0.605-16.772-1.326
			c-1.926-0.676-2.868-1.645-2.529-3.734C90.403,276.26,90.294,275.421,90.294,274.599z"/>
		<path fill-rule="evenodd" clip-rule="evenodd" fill="#898B8E" d="M188.968,215.236c-0.002-5.584-0.001-5.586,5.308-3.704
			c3.413,1.21,6.905,1.88,10.543,1.573c1.756-0.148,3.282-0.728,3.714-2.632c0.429-1.892-0.873-2.941-2.3-3.681
			c-3.177-1.647-6.457-3.099-9.619-4.771c-4.498-2.38-7.079-6.103-7.273-11.272c-0.285-7.576,4.345-12.784,12.204-14.01
			c6.232-0.972,12.164,0.044,17.986,2.25c1.222,0.463,1.632,0.918,1.007,2.235c-0.926,1.95-1.719,3.976-2.402,6.024
			c-0.532,1.597-1.39,1.866-2.892,1.35c-2.041-0.702-4.133-1.261-6.219-1.826c-1.381-0.374-2.803-0.413-4.225-0.254
			c-1.336,0.148-2.529,0.6-2.935,2.015c-0.441,1.542,0.374,2.644,1.641,3.332c2.161,1.175,4.391,2.221,6.585,3.335
			c1.53,0.775,3.084,1.512,4.565,2.373c4.566,2.653,6.693,6.689,6.43,11.927c-0.261,5.185-2.625,9.235-7.327,11.481
			c-7.828,3.742-15.781,3.012-23.678,0.028c-0.797-0.301-1.135-0.889-1.12-1.739C188.989,217.926,188.971,216.581,188.968,215.236z"
			/>
		<path fill-rule="evenodd" clip-rule="evenodd" fill="#898B8E" d="M161.46,328.784c0,3.169-0.015,6.003,0.008,8.837
			c0.008,1.022-0.372,1.762-1.363,2.059c-6.436,1.932-12.925,3.11-19.568,1.053c-7.921-2.454-11.692-8.35-13.024-16.1
			c-1.043-6.066-0.726-12.077,1.816-17.773c4.1-9.188,12.666-12.684,22.244-11.99c3.584,0.26,7.058,1.103,10.394,2.501
			c1.113,0.466,1.485,0.949,0.939,2.167c-0.914,2.037-1.724,4.132-2.425,6.252c-0.533,1.612-1.423,1.941-2.879,1.265
			c-2.041-0.949-4.177-1.564-6.409-1.897c-4.8-0.718-8.374,1.286-10.069,5.83c-1.728,4.632-1.762,9.381-0.364,14.066
			c1.63,5.468,6.145,7.576,12.803,6.236C156.192,330.76,158.665,329.714,161.46,328.784z"/>
		<path fill-rule="evenodd" clip-rule="evenodd" fill="#898B8E" d="M425.648,263.291c-0.023,2.166,0.019,4.335-0.092,6.497
			c-0.083,1.612,0.619,2.067,2.129,2.034c3.436-0.074,6.876,0.026,10.312-0.044c1.621-0.033,2.346,0.585,2.308,2.221
			c-0.05,2.167-0.044,4.335-0.003,6.502c0.022,1.147-0.432,1.574-1.591,1.569c-7.847-0.032-15.694-0.029-23.542-0.007
			c-1.506,0.004-2.115-0.602-2.111-2.152c0.036-13.827,0.045-27.653-0.009-41.479c-0.007-1.731,0.68-2.158,2.265-2.147
			c7.549,0.053,15.098,0.068,22.646-0.008c1.797-0.019,2.412,0.679,2.349,2.37c-0.066,1.792-0.051,3.588-0.005,5.38
			c0.041,1.583-0.546,2.286-2.244,2.236c-3.435-0.102-6.876,0.031-10.312-0.056c-1.668-0.042-2.306,0.579-2.188,2.229
			c0.117,1.636,0.085,3.283,0.117,4.925C426.74,256.673,426.78,259.983,425.648,263.291z"/>
		<path fill-rule="evenodd" clip-rule="evenodd" fill="#898B8E" d="M425.648,204.087c-0.023,2.167,0.02,4.336-0.092,6.498
			c-0.085,1.623,0.641,2.062,2.137,2.032c3.438-0.069,6.878,0.032,10.314-0.044c1.636-0.036,2.333,0.603,2.297,2.227
			c-0.048,2.167-0.044,4.335-0.001,6.502c0.022,1.151-0.442,1.569-1.597,1.564c-7.848-0.032-15.695-0.029-23.544-0.007
			c-1.513,0.005-2.108-0.614-2.104-2.16c0.036-13.828,0.038-27.656-0.002-41.483c-0.005-1.517,0.444-2.145,2.039-2.134
			c7.698,0.053,15.397,0.054,23.096-0.001c1.597-0.011,2.134,0.678,2.108,2.145c-0.033,1.868-0.045,3.738,0.005,5.605
			c0.043,1.599-0.578,2.274-2.258,2.227c-3.436-0.097-6.878,0.036-10.313-0.056c-1.682-0.045-2.294,0.586-2.175,2.23
			c0.119,1.636,0.085,3.283,0.117,4.926C426.74,197.47,426.78,200.78,425.648,204.087z"/>
		<path fill-rule="evenodd" clip-rule="evenodd" fill="#8A8C8F" d="M237.32,264.247c0,5.153-0.051,10.306,0.029,15.458
			c0.026,1.736-0.558,2.442-2.324,2.372c-2.386-0.096-4.778-0.019-7.168-0.024c-2.771-0.007-3-0.23-3.006-3.109
			c-0.011-6.349-0.003-12.696-0.003-19.044c0-3.734-0.07-7.47,0.032-11.202c0.044-1.617-0.367-2.298-2.108-2.194
			c-2.307,0.139-4.628,0.018-6.943,0.034c-1.388,0.01-2.025-0.565-1.967-2.03c0.083-2.088,0.074-4.183,0.004-6.272
			c-0.049-1.473,0.585-1.95,2.004-1.945c10.157,0.034,20.313,0.034,30.47-0.001c1.482-0.005,2.222,0.424,2.156,2.04
			c-0.087,2.163-0.102,4.335,0.007,6.495c0.073,1.438-0.507,1.779-1.822,1.737c-2.537-0.081-5.08,0.04-7.616-0.047
			c-1.4-0.049-1.783,0.492-1.768,1.826C237.354,253.641,237.32,258.944,237.32,264.247z"/>
		<path fill-rule="evenodd" clip-rule="evenodd" fill="#8A8C8E" d="M377.198,199.786c0-6.722,0.064-13.446-0.04-20.167
			c-0.029-1.983,0.624-2.659,2.577-2.548c2.382,0.136,4.787,0.159,7.166-0.005c2.156-0.148,2.858,0.591,2.838,2.774
			c-0.098,9.859-0.043,19.718-0.042,29.578c0,3.231,0.001,3.233,3.153,3.234c4.034,0.002,8.067,0.05,12.1-0.024
			c1.614-0.03,2.336,0.487,2.261,2.182c-0.096,2.162-0.07,4.333-0.005,6.497c0.035,1.159-0.366,1.565-1.543,1.561
			c-8.739-0.036-17.478-0.04-26.217-0.002c-1.775,0.007-2.293-0.771-2.276-2.466C377.238,213.53,377.198,206.658,377.198,199.786z"
			/>
		<path fill-rule="evenodd" clip-rule="evenodd" fill="#8A8B8E" d="M341.317,199.776c0-6.652,0.083-13.306-0.047-19.956
			c-0.044-2.22,0.725-2.889,2.844-2.752c2.382,0.154,4.788,0.144,7.171,0.002c1.982-0.118,2.582,0.615,2.566,2.568
			c-0.078,10.015-0.037,20.031-0.035,30.047c0.001,2.962,0.006,2.965,2.98,2.968c4.111,0.003,8.223,0.047,12.332-0.021
			c1.624-0.027,2.326,0.539,2.258,2.213c-0.087,2.164-0.075,4.336,0,6.501c0.04,1.196-0.418,1.528-1.565,1.523
			c-8.745-0.036-17.489-0.037-26.235-0.004c-1.753,0.007-2.314-0.746-2.297-2.459C341.358,213.529,341.317,206.653,341.317,199.776z
			"/>
		<path fill-rule="evenodd" clip-rule="evenodd" fill="#8A8C8F" d="M315.246,318.344c-0.001-6.797,0.048-13.595-0.033-20.391
			c-0.021-1.833,0.545-2.569,2.435-2.473c2.458,0.125,4.937,0.154,7.391-0.008c2.11-0.139,2.724,0.694,2.71,2.706
			c-0.066,9.935-0.031,19.869-0.029,29.803c0,3.076,0.004,3.077,3.062,3.079c4.034,0.001,8.067,0.043,12.101-0.02
			c1.695-0.026,2.493,0.58,2.429,2.348c-0.075,2.089-0.056,4.184-0.002,6.273c0.028,1.095-0.249,1.62-1.486,1.615
			c-8.889-0.04-17.777-0.039-26.666-0.008c-1.687,0.007-1.93-0.933-1.924-2.31C315.262,332.088,315.246,325.216,315.246,318.344z"/>
		<path fill-rule="evenodd" clip-rule="evenodd" fill="#898B8E" d="M191.985,281.238c-0.41,0.819-1.167,0.815-1.925,0.815
			c-2.689-0.002-5.378-0.021-8.067,0.006c-1.472,0.015-2.162-0.561-2.158-2.129c0.032-13.819,0.036-27.638-0.004-41.456
			c-0.005-1.674,0.647-2.203,2.267-2.191c7.544,0.055,15.089,0.068,22.632-0.007c1.802-0.019,2.4,0.705,2.35,2.379
			c-0.058,1.94-0.085,3.888,0.012,5.825c0.069,1.372-0.402,1.813-1.779,1.78c-3.509-0.085-7.021-0.033-10.532-0.025
			c-0.811,0.002-1.658-0.14-2.36,0.451c-0.215,3.068-0.423,6.054,0.365,9.173c0.725,2.874,0.906,6.034-0.328,8.959
			c-0.311,0.739-0.253,1.446-0.273,2.175C192.058,271.74,192.422,276.495,191.985,281.238z"/>
		<path fill-rule="evenodd" clip-rule="evenodd" fill="#8A8C8F" d="M320.687,200.039c0-6.873,0.046-13.746-0.033-20.617
			c-0.02-1.737,0.496-2.424,2.289-2.348c2.685,0.115,5.38,0.1,8.065,0.005c1.689-0.059,2.202,0.639,2.198,2.251
			c-0.039,13.745-0.037,27.489-0.004,41.233c0.004,1.631-0.644,2.319-2.253,2.296c-2.763-0.04-5.531-0.098-8.289,0.023
			c-1.578,0.069-2.026-0.435-2.009-2.005C320.731,213.933,320.687,206.985,320.687,200.039z"/>
		<path fill-rule="evenodd" clip-rule="evenodd" fill="#B6B7BA" d="M195.988,328.768c3.437-0.008,6.876-0.104,10.309,0.014
			c1.747,0.06,2.301-0.438,2.285-2.246c-0.087-10.311-0.047-20.622-0.051-30.934c0.707,0.479,0.438,1.216,0.438,1.845
			c0,13.57-0.014,27.141-0.041,40.711c-0.005,2.767-0.375,3.117-3.067,3.125c-2.312,0.007-4.63-0.11-6.933,0.033
			c-2.233,0.139-2.888-0.937-2.872-2.934C196.083,335.178,196.016,331.973,195.988,328.768z"/>
		<path fill-rule="evenodd" clip-rule="evenodd" fill="#B5B6B9" d="M254.261,210.389c4.174-0.027,8.349-0.055,12.523-0.083
			c0.026,3.494,0.016,6.988,0.096,10.481c0.032,1.438-0.616,2.07-1.972,2.077c-2.826,0.016-5.652,0.001-8.479,0.01
			c-1.664,0.004-2.148-0.938-2.136-2.448C254.321,217.082,254.276,213.735,254.261,210.389z"/>
		<path fill-rule="evenodd" clip-rule="evenodd" fill="#B6B7BA" d="M191.985,281.238c0.137-5.934-0.358-11.867,0.343-17.807
			c0.567-4.805-0.57-9.622-0.373-14.449c0.032-0.779-0.31-1.659,0.466-2.296c-0.012,2.017,0.085,4.042-0.069,6.048
			c-0.136,1.769,0.598,2.144,2.201,2.085c3.059-0.11,6.125,0.017,9.187-0.052c1.543-0.034,2.17,0.556,2.111,2.106
			c-0.076,2.014-0.091,4.037,0.004,6.049c0.074,1.549-0.487,2.14-2.059,2.099c-3.135-0.082-6.277,0.05-9.411-0.054
			c-1.575-0.052-2.068,0.474-2.031,2.039c0.095,3.957,0.045,7.918,0.02,11.877C192.369,279.676,192.636,280.541,191.985,281.238z"/>
		<path fill-rule="evenodd" clip-rule="evenodd" fill="#B5B6B9" d="M346.191,271.861c4.354-0.021,8.709-0.043,13.064-0.063
			c0.96,2.806,1.898,5.62,2.891,8.415c0.468,1.319-0.078,1.848-1.323,1.854c-3.507,0.021-7.014-0.012-10.521,0.023
			c-0.939,0.01-1.191-0.443-1.475-1.267C347.812,277.874,347.595,274.691,346.191,271.861z"/>
		<path fill-rule="evenodd" clip-rule="evenodd" fill="#B5B6B9" d="M169.033,212.654c4.361-0.02,8.723-0.039,13.083-0.058
			c0.955,2.797,1.889,5.601,2.875,8.387c0.455,1.284-0.024,1.871-1.288,1.879c-3.497,0.023-6.993-0.016-10.489,0.02
			c-1.393,0.014-1.45-1.063-1.707-1.946C170.701,218.169,170.289,215.286,169.033,212.654z"/>
		<path fill-rule="evenodd" clip-rule="evenodd" fill="#B5B6B9" d="M425.648,204.087c0.009-3.31,0.019-6.62,0.027-9.93
			c3.729,0.005,7.459,0.063,11.187-0.008c1.606-0.031,2.337,0.474,2.252,2.173c-0.101,2.009-0.102,4.03,0.003,6.039
			c0.075,1.438-0.534,1.753-1.836,1.733C433.404,204.035,429.525,204.082,425.648,204.087z"/>
		<path fill-rule="evenodd" clip-rule="evenodd" fill="#B5B6B9" d="M425.648,263.291c0.009-3.31,0.019-6.62,0.027-9.93
			c3.729,0.006,7.457,0.063,11.184-0.008c1.607-0.03,2.336,0.486,2.254,2.179c-0.097,2.008-0.102,4.029,0.004,6.036
			c0.075,1.442-0.542,1.749-1.839,1.73C433.402,263.239,429.525,263.285,425.648,263.291z"/>
		<path fill-rule="evenodd" clip-rule="evenodd" fill="#C3C5C6" d="M123.369,204.952c0.675,0.854,0.494,1.912,0.345,2.786
			c-0.194,1.138-0.559,0.255-0.799-0.113C123.705,206.843,123.08,205.82,123.369,204.952z"/>
		<path fill-rule="evenodd" clip-rule="evenodd" fill="#FEFEFE" d="M159.271,259.125c0.024,2.773-0.251,5.49-1.296,8.101
			c-1.364,3.407-4.027,4.887-7.502,4.988c-3.47,0.102-6.451-1.149-7.807-4.502c-2.325-5.748-2.333-11.676,0.019-17.408
			c1.396-3.402,4.415-4.666,8.019-4.518c3.369,0.138,5.791,1.703,7.164,4.814C159.067,253.32,159.299,256.203,159.271,259.125z"/>
		<path fill-rule="evenodd" clip-rule="evenodd" fill="#FEFEFE" d="M228.159,318.226c-0.056-2.673,0.108-5.187,1.013-7.607
			c1.384-3.703,4.07-5.605,7.995-5.63c3.828-0.024,6.675,1.734,7.916,5.367c1.785,5.222,1.799,10.564-0.001,15.788
			c-1.252,3.632-4,5.309-7.944,5.305c-3.777-0.003-6.559-1.904-7.918-5.432C228.235,323.465,228.074,320.797,228.159,318.226z"/>
		<path fill-rule="evenodd" clip-rule="evenodd" fill="#FEFEFE" d="M277.627,318.186c0.083-2.987,0.326-5.94,1.696-8.688
			c1.67-3.348,4.488-4.631,8.061-4.495c3.473,0.132,6.052,1.82,7.218,5.069c1.893,5.271,1.945,10.675,0.137,15.993
			c-1.2,3.532-3.914,5.312-7.675,5.383c-3.87,0.072-6.669-1.694-8.089-5.156c-0.338-0.823-0.662-1.68-0.804-2.551
			C277.873,321.905,277.488,320.07,277.627,318.186z"/>
		<path fill-rule="evenodd" clip-rule="evenodd" fill="#FEFEFE" d="M383.562,245.726c5.093,0.161,7.298,3.117,5.642,7.151
			c-0.909,2.212-5.392,4.049-7.498,3.102c-0.738-0.332-0.6-0.954-0.604-1.518c-0.021-2.015,0.102-4.038-0.039-6.043
			C380.91,246.256,381.64,245.269,383.562,245.726z"/>
		<path fill-rule="evenodd" clip-rule="evenodd" fill="#FDFDFD" d="M339.439,244.725c1.438,5.512,2.748,10.527,4.054,15.544
			c0.252,0.965-0.136,1.375-1.125,1.359c-1.788-0.027-3.585-0.114-5.362,0.028c-1.742,0.138-1.768-0.658-1.426-1.962
			C336.846,254.879,338.069,250.054,339.439,244.725z"/>
		<path fill-rule="evenodd" clip-rule="evenodd" fill="#FEFEFE" d="M162.3,185.435c1.158,4.462,2.191,8.379,3.188,12.306
			c1.188,4.677,1.174,4.673-3.768,4.684c-4.333,0.01-3.698,0.153-2.806-3.534C159.956,194.59,161.07,190.307,162.3,185.435z"/>
	</g>
</g>
</svg>
